<mxfile host="Electron" modified="2023-08-15T11:06:54.518Z" agent="Mozilla/5.0 (Windows NT 10.0; Win64; x64) AppleWebKit/537.36 (KHTML, like Gecko) draw.io/21.6.8 Chrome/114.0.5735.289 Electron/25.5.0 Safari/537.36" etag="vIxdy5h3XciGeMTDH4De" version="21.6.8" type="device">
  <diagram name="Page-1" id="LrJYEh5VOU_Yto81CWbd">
    <mxGraphModel dx="2048" dy="823" grid="1" gridSize="10" guides="1" tooltips="1" connect="1" arrows="1" fold="1" page="1" pageScale="1" pageWidth="827" pageHeight="1169" math="0" shadow="0">
      <root>
        <mxCell id="0" />
        <mxCell id="1" parent="0" />
        <mxCell id="_QZMqEwV6ezSS9s6Q8o--36" style="edgeStyle=orthogonalEdgeStyle;rounded=0;orthogonalLoop=1;jettySize=auto;html=1;entryX=0;entryY=0.5;entryDx=0;entryDy=0;" edge="1" parent="1" source="_QZMqEwV6ezSS9s6Q8o--1" target="_QZMqEwV6ezSS9s6Q8o--7">
          <mxGeometry relative="1" as="geometry">
            <Array as="points">
              <mxPoint x="-110" y="450" />
              <mxPoint x="-110" y="320" />
            </Array>
          </mxGeometry>
        </mxCell>
        <mxCell id="_QZMqEwV6ezSS9s6Q8o--51" style="edgeStyle=orthogonalEdgeStyle;rounded=0;orthogonalLoop=1;jettySize=auto;html=1;entryX=0;entryY=0.5;entryDx=0;entryDy=0;" edge="1" parent="1" source="_QZMqEwV6ezSS9s6Q8o--1" target="_QZMqEwV6ezSS9s6Q8o--50">
          <mxGeometry relative="1" as="geometry" />
        </mxCell>
        <mxCell id="_QZMqEwV6ezSS9s6Q8o--62" style="edgeStyle=orthogonalEdgeStyle;rounded=0;orthogonalLoop=1;jettySize=auto;html=1;entryX=0;entryY=0.5;entryDx=0;entryDy=0;" edge="1" parent="1" source="_QZMqEwV6ezSS9s6Q8o--1" target="_QZMqEwV6ezSS9s6Q8o--61">
          <mxGeometry relative="1" as="geometry" />
        </mxCell>
        <mxCell id="_QZMqEwV6ezSS9s6Q8o--63" style="edgeStyle=orthogonalEdgeStyle;rounded=0;orthogonalLoop=1;jettySize=auto;html=1;entryX=0;entryY=0.5;entryDx=0;entryDy=0;" edge="1" parent="1" source="_QZMqEwV6ezSS9s6Q8o--1" target="_QZMqEwV6ezSS9s6Q8o--2">
          <mxGeometry relative="1" as="geometry" />
        </mxCell>
        <mxCell id="_QZMqEwV6ezSS9s6Q8o--1" value="User" style="shape=umlActor;verticalLabelPosition=bottom;verticalAlign=top;html=1;outlineConnect=0;" vertex="1" parent="1">
          <mxGeometry x="-180" y="420" width="30" height="60" as="geometry" />
        </mxCell>
        <mxCell id="_QZMqEwV6ezSS9s6Q8o--2" value="Demander une information à travers la messagerie" style="ellipse;whiteSpace=wrap;html=1;" vertex="1" parent="1">
          <mxGeometry x="-70" y="410" width="120" height="80" as="geometry" />
        </mxCell>
        <mxCell id="_QZMqEwV6ezSS9s6Q8o--5" style="edgeStyle=orthogonalEdgeStyle;rounded=0;orthogonalLoop=1;jettySize=auto;html=1;entryX=1;entryY=0.5;entryDx=0;entryDy=0;" edge="1" parent="1" source="_QZMqEwV6ezSS9s6Q8o--3" target="_QZMqEwV6ezSS9s6Q8o--4">
          <mxGeometry relative="1" as="geometry" />
        </mxCell>
        <mxCell id="_QZMqEwV6ezSS9s6Q8o--15" style="edgeStyle=orthogonalEdgeStyle;rounded=0;orthogonalLoop=1;jettySize=auto;html=1;" edge="1" parent="1" source="_QZMqEwV6ezSS9s6Q8o--3" target="_QZMqEwV6ezSS9s6Q8o--14">
          <mxGeometry relative="1" as="geometry" />
        </mxCell>
        <mxCell id="_QZMqEwV6ezSS9s6Q8o--3" value="Virtu&#39;com" style="shape=umlActor;verticalLabelPosition=bottom;verticalAlign=top;html=1;outlineConnect=0;" vertex="1" parent="1">
          <mxGeometry x="970" y="420" width="30" height="60" as="geometry" />
        </mxCell>
        <mxCell id="_QZMqEwV6ezSS9s6Q8o--4" value="Collecter les infos sur les users" style="ellipse;whiteSpace=wrap;html=1;" vertex="1" parent="1">
          <mxGeometry x="790" y="280" width="120" height="80" as="geometry" />
        </mxCell>
        <mxCell id="_QZMqEwV6ezSS9s6Q8o--41" value="" style="edgeStyle=orthogonalEdgeStyle;rounded=0;orthogonalLoop=1;jettySize=auto;html=1;exitX=0;exitY=0.5;exitDx=0;exitDy=0;" edge="1" parent="1" source="_QZMqEwV6ezSS9s6Q8o--68" target="_QZMqEwV6ezSS9s6Q8o--40">
          <mxGeometry relative="1" as="geometry">
            <mxPoint x="620" y="805" as="sourcePoint" />
          </mxGeometry>
        </mxCell>
        <mxCell id="_QZMqEwV6ezSS9s6Q8o--67" value="" style="edgeStyle=orthogonalEdgeStyle;rounded=0;orthogonalLoop=1;jettySize=auto;html=1;" edge="1" parent="1" source="_QZMqEwV6ezSS9s6Q8o--9">
          <mxGeometry relative="1" as="geometry">
            <mxPoint x="740" y="805" as="targetPoint" />
          </mxGeometry>
        </mxCell>
        <mxCell id="_QZMqEwV6ezSS9s6Q8o--9" value="Transmission demande aux personnes concerner par le rôle" style="ellipse;whiteSpace=wrap;html=1;" vertex="1" parent="1">
          <mxGeometry x="790" y="765" width="120" height="80" as="geometry" />
        </mxCell>
        <mxCell id="_QZMqEwV6ezSS9s6Q8o--21" style="edgeStyle=orthogonalEdgeStyle;rounded=0;orthogonalLoop=1;jettySize=auto;html=1;" edge="1" parent="1" source="_QZMqEwV6ezSS9s6Q8o--14" target="_QZMqEwV6ezSS9s6Q8o--16">
          <mxGeometry relative="1" as="geometry" />
        </mxCell>
        <mxCell id="_QZMqEwV6ezSS9s6Q8o--14" value="Verification des dispos" style="ellipse;whiteSpace=wrap;html=1;" vertex="1" parent="1">
          <mxGeometry x="790" y="410" width="120" height="80" as="geometry" />
        </mxCell>
        <mxCell id="_QZMqEwV6ezSS9s6Q8o--23" value="" style="edgeStyle=orthogonalEdgeStyle;rounded=0;orthogonalLoop=1;jettySize=auto;html=1;" edge="1" parent="1" source="_QZMqEwV6ezSS9s6Q8o--16" target="_QZMqEwV6ezSS9s6Q8o--22">
          <mxGeometry relative="1" as="geometry" />
        </mxCell>
        <mxCell id="_QZMqEwV6ezSS9s6Q8o--16" value="Dispos ?" style="rhombus;whiteSpace=wrap;html=1;" vertex="1" parent="1">
          <mxGeometry x="810" y="510" width="80" height="80" as="geometry" />
        </mxCell>
        <mxCell id="_QZMqEwV6ezSS9s6Q8o--19" value="Oui" style="text;html=1;strokeColor=none;fillColor=none;align=center;verticalAlign=middle;whiteSpace=wrap;rounded=0;" vertex="1" parent="1">
          <mxGeometry x="850" y="590" width="60" height="30" as="geometry" />
        </mxCell>
        <mxCell id="_QZMqEwV6ezSS9s6Q8o--22" value="Reponse d&#39;indisponibilité" style="ellipse;whiteSpace=wrap;html=1;" vertex="1" parent="1">
          <mxGeometry x="525" y="510" width="120" height="80" as="geometry" />
        </mxCell>
        <mxCell id="_QZMqEwV6ezSS9s6Q8o--24" value="Non" style="text;html=1;strokeColor=none;fillColor=none;align=center;verticalAlign=middle;whiteSpace=wrap;rounded=0;" vertex="1" parent="1">
          <mxGeometry x="700" y="520" width="60" height="30" as="geometry" />
        </mxCell>
        <mxCell id="_QZMqEwV6ezSS9s6Q8o--31" value="" style="endArrow=block;dashed=1;endFill=0;endSize=12;html=1;rounded=0;exitX=1;exitY=0.5;exitDx=0;exitDy=0;entryX=0;entryY=0.5;entryDx=0;entryDy=0;" edge="1" parent="1" source="_QZMqEwV6ezSS9s6Q8o--7" target="_QZMqEwV6ezSS9s6Q8o--4">
          <mxGeometry width="160" relative="1" as="geometry">
            <mxPoint x="390" y="270" as="sourcePoint" />
            <mxPoint x="550" y="270" as="targetPoint" />
          </mxGeometry>
        </mxCell>
        <mxCell id="_QZMqEwV6ezSS9s6Q8o--32" value="" style="endArrow=block;dashed=1;endFill=0;endSize=12;html=1;rounded=0;exitX=1;exitY=0.5;exitDx=0;exitDy=0;entryX=0;entryY=0.5;entryDx=0;entryDy=0;" edge="1" parent="1" source="_QZMqEwV6ezSS9s6Q8o--2" target="_QZMqEwV6ezSS9s6Q8o--14">
          <mxGeometry width="160" relative="1" as="geometry">
            <mxPoint x="330" y="410" as="sourcePoint" />
            <mxPoint x="490" y="410" as="targetPoint" />
          </mxGeometry>
        </mxCell>
        <mxCell id="_QZMqEwV6ezSS9s6Q8o--7" value="Remplir les informations personnel" style="ellipse;whiteSpace=wrap;html=1;" vertex="1" parent="1">
          <mxGeometry x="-70" y="280" width="120" height="80" as="geometry" />
        </mxCell>
        <mxCell id="_QZMqEwV6ezSS9s6Q8o--37" value="&lt;font style=&quot;font-size: 8px;&quot;&gt;-Demande&lt;br&gt;-Rôle&amp;nbsp;&lt;/font&gt;" style="whiteSpace=wrap;html=1;aspect=fixed;" vertex="1" parent="1">
          <mxGeometry x="50" y="350" width="50" height="50" as="geometry" />
        </mxCell>
        <mxCell id="_QZMqEwV6ezSS9s6Q8o--38" value="" style="endArrow=none;dashed=1;html=1;dashPattern=1 3;strokeWidth=2;rounded=0;exitX=0.5;exitY=0;exitDx=0;exitDy=0;entryX=0;entryY=0.5;entryDx=0;entryDy=0;" edge="1" parent="1" source="_QZMqEwV6ezSS9s6Q8o--2" target="_QZMqEwV6ezSS9s6Q8o--37">
          <mxGeometry width="50" height="50" relative="1" as="geometry">
            <mxPoint x="160" y="450" as="sourcePoint" />
            <mxPoint x="210" y="400" as="targetPoint" />
          </mxGeometry>
        </mxCell>
        <mxCell id="_QZMqEwV6ezSS9s6Q8o--39" value="&lt;h1&gt;&lt;span style=&quot;background-color: initial;&quot;&gt;Diagramme de cas d&#39;utilisation&lt;/span&gt;&lt;br&gt;&lt;/h1&gt;" style="text;html=1;strokeColor=none;fillColor=none;spacing=5;spacingTop=-20;whiteSpace=wrap;overflow=hidden;rounded=0;" vertex="1" parent="1">
          <mxGeometry x="270" y="50" width="370" height="120" as="geometry" />
        </mxCell>
        <mxCell id="_QZMqEwV6ezSS9s6Q8o--43" value="" style="edgeStyle=orthogonalEdgeStyle;rounded=0;orthogonalLoop=1;jettySize=auto;html=1;" edge="1" parent="1" source="_QZMqEwV6ezSS9s6Q8o--40" target="_QZMqEwV6ezSS9s6Q8o--42">
          <mxGeometry relative="1" as="geometry" />
        </mxCell>
        <mxCell id="_QZMqEwV6ezSS9s6Q8o--40" value="Creation de conversation 1 V (rôle)" style="ellipse;whiteSpace=wrap;html=1;" vertex="1" parent="1">
          <mxGeometry x="460" y="765" width="120" height="80" as="geometry" />
        </mxCell>
        <mxCell id="_QZMqEwV6ezSS9s6Q8o--48" value="" style="edgeStyle=orthogonalEdgeStyle;rounded=0;orthogonalLoop=1;jettySize=auto;html=1;" edge="1" parent="1" source="_QZMqEwV6ezSS9s6Q8o--42" target="_QZMqEwV6ezSS9s6Q8o--45">
          <mxGeometry relative="1" as="geometry" />
        </mxCell>
        <mxCell id="_QZMqEwV6ezSS9s6Q8o--42" value="Creation de ticket ?" style="rhombus;whiteSpace=wrap;html=1;" vertex="1" parent="1">
          <mxGeometry x="310" y="760" width="90" height="90" as="geometry" />
        </mxCell>
        <mxCell id="_QZMqEwV6ezSS9s6Q8o--56" value="" style="edgeStyle=orthogonalEdgeStyle;rounded=0;orthogonalLoop=1;jettySize=auto;html=1;" edge="1" parent="1" source="_QZMqEwV6ezSS9s6Q8o--45" target="_QZMqEwV6ezSS9s6Q8o--55">
          <mxGeometry relative="1" as="geometry" />
        </mxCell>
        <mxCell id="_QZMqEwV6ezSS9s6Q8o--45" value="Remplir informaions ticket" style="ellipse;whiteSpace=wrap;html=1;" vertex="1" parent="1">
          <mxGeometry x="295" y="895" width="120" height="80" as="geometry" />
        </mxCell>
        <mxCell id="_QZMqEwV6ezSS9s6Q8o--46" value="&lt;span style=&quot;font-size: 8px;&quot;&gt;-Besoin&lt;br&gt;- Priorité&lt;br&gt;&lt;/span&gt;" style="whiteSpace=wrap;html=1;aspect=fixed;" vertex="1" parent="1">
          <mxGeometry x="449" y="910" width="50" height="50" as="geometry" />
        </mxCell>
        <mxCell id="_QZMqEwV6ezSS9s6Q8o--47" value="" style="endArrow=none;dashed=1;html=1;rounded=0;exitX=1;exitY=0.5;exitDx=0;exitDy=0;" edge="1" parent="1" source="_QZMqEwV6ezSS9s6Q8o--45" target="_QZMqEwV6ezSS9s6Q8o--46">
          <mxGeometry width="50" height="50" relative="1" as="geometry">
            <mxPoint x="450" y="855" as="sourcePoint" />
            <mxPoint x="500" y="805" as="targetPoint" />
          </mxGeometry>
        </mxCell>
        <mxCell id="_QZMqEwV6ezSS9s6Q8o--50" value="Suivi des tickets du rôle&amp;nbsp;" style="ellipse;whiteSpace=wrap;html=1;" vertex="1" parent="1">
          <mxGeometry x="-70" y="890" width="120" height="80" as="geometry" />
        </mxCell>
        <mxCell id="_QZMqEwV6ezSS9s6Q8o--54" value="" style="endArrow=classic;html=1;rounded=0;entryX=0.5;entryY=0;entryDx=0;entryDy=0;" edge="1" parent="1" source="_QZMqEwV6ezSS9s6Q8o--16" target="_QZMqEwV6ezSS9s6Q8o--9">
          <mxGeometry width="50" height="50" relative="1" as="geometry">
            <mxPoint x="390" y="680" as="sourcePoint" />
            <mxPoint x="440" y="630" as="targetPoint" />
          </mxGeometry>
        </mxCell>
        <mxCell id="_QZMqEwV6ezSS9s6Q8o--55" value="Valider le ticket" style="ellipse;whiteSpace=wrap;html=1;" vertex="1" parent="1">
          <mxGeometry x="130" y="895" width="120" height="80" as="geometry" />
        </mxCell>
        <mxCell id="_QZMqEwV6ezSS9s6Q8o--57" value="" style="endArrow=none;dashed=1;html=1;rounded=0;" edge="1" parent="1" source="_QZMqEwV6ezSS9s6Q8o--50">
          <mxGeometry width="50" height="50" relative="1" as="geometry">
            <mxPoint x="250" y="980" as="sourcePoint" />
            <mxPoint x="130" y="930" as="targetPoint" />
          </mxGeometry>
        </mxCell>
        <mxCell id="_QZMqEwV6ezSS9s6Q8o--60" value="Oui" style="text;html=1;strokeColor=none;fillColor=none;align=center;verticalAlign=middle;whiteSpace=wrap;rounded=0;" vertex="1" parent="1">
          <mxGeometry x="340" y="850" width="60" height="30" as="geometry" />
        </mxCell>
        <mxCell id="_QZMqEwV6ezSS9s6Q8o--61" value="Consulter les conversations" style="ellipse;whiteSpace=wrap;html=1;" vertex="1" parent="1">
          <mxGeometry x="-70" y="1030" width="120" height="80" as="geometry" />
        </mxCell>
        <mxCell id="_QZMqEwV6ezSS9s6Q8o--69" style="edgeStyle=orthogonalEdgeStyle;rounded=0;orthogonalLoop=1;jettySize=auto;html=1;entryX=0.5;entryY=1;entryDx=0;entryDy=0;" edge="1" parent="1" source="_QZMqEwV6ezSS9s6Q8o--68" target="_QZMqEwV6ezSS9s6Q8o--22">
          <mxGeometry relative="1" as="geometry" />
        </mxCell>
        <mxCell id="_QZMqEwV6ezSS9s6Q8o--68" value="Designation d&#39;un responsable ?" style="rhombus;whiteSpace=wrap;html=1;" vertex="1" parent="1">
          <mxGeometry x="640" y="755" width="100" height="100" as="geometry" />
        </mxCell>
        <mxCell id="_QZMqEwV6ezSS9s6Q8o--70" value="Oui" style="text;html=1;strokeColor=none;fillColor=none;align=center;verticalAlign=middle;whiteSpace=wrap;rounded=0;" vertex="1" parent="1">
          <mxGeometry x="585" y="780" width="60" height="30" as="geometry" />
        </mxCell>
        <mxCell id="_QZMqEwV6ezSS9s6Q8o--71" value="Non" style="text;html=1;strokeColor=none;fillColor=none;align=center;verticalAlign=middle;whiteSpace=wrap;rounded=0;" vertex="1" parent="1">
          <mxGeometry x="680" y="725" width="60" height="30" as="geometry" />
        </mxCell>
      </root>
    </mxGraphModel>
  </diagram>
</mxfile>
